# xmcd
#
# Track frame offsets: 
#        150
#        19585
#        38138
#
# Disc length: 766 seconds
#
# Revision: 16
# Processed by: cddbd v1.5.2PL0 Copyright (c) Steve Scherf et al.
# Submitted via: ExactAudioCopy v1.3
#
DISCID=1802fc03
DTITLE=Eros Ramazzotti - La Nostra Vita
DYEAR=2003
DGENRE=Pop
TTITLE0=La Nostra Vita
TTITLE1=Piccola Pietra
TTITLE2=Nuestra Vida
EXTD=
EXTT0=
EXTT1=
EXTT2=
PLAYORDER=
